<svg width="46" height="45" viewBox="0 0 46 45" fill="none" xmlns="http://www.w3.org/2000/svg">
<circle cx="23.0811" cy="22.5" r="22.5" fill="white"/>
<path fill-rule="evenodd" clip-rule="evenodd" d="M22.9652 12C25.7403 12 28.0328 14.1145 28.3155 16.8189L28.3943 16.8198C29.9338 16.8198 31.8055 17.8422 32.4372 20.7098L33.2749 27.1935C33.5754 29.2861 33.1995 30.9646 32.1559 32.1686C31.1176 33.3662 29.4741 34 27.4027 34H18.5398C16.2646 34 14.6795 33.4426 13.6932 32.2971C12.7027 31.1483 12.3714 29.4252 12.709 27.1766L13.5329 20.7789C14.0743 17.8454 16.0544 16.8198 17.5875 16.8198C17.7198 15.5994 18.2701 14.4384 19.1431 13.5681C20.1464 12.5712 21.5298 12 22.9429 12H22.9652ZM28.3943 18.4124H17.5875C17.1193 18.4124 15.5543 18.6013 15.1052 21.0262L14.2856 27.3963C14.0191 29.1831 14.2251 30.4763 14.8993 31.2587C15.5649 32.0316 16.7562 32.4075 18.5398 32.4075H27.4027C28.5154 32.4075 30.0346 32.1856 30.9519 31.126C31.6802 30.2862 31.9308 29.0356 31.6972 27.408L30.8702 20.9827C30.5177 19.3997 29.5877 18.4124 28.3943 18.4124ZM26.0616 21.3682C26.5011 21.3682 26.8823 21.7249 26.8823 22.1645C26.8823 22.604 26.55 22.9607 26.1104 22.9607H26.0616C25.6221 22.9607 25.2653 22.604 25.2653 22.1645C25.2653 21.7249 25.6221 21.3682 26.0616 21.3682ZM19.8719 21.3682C20.3114 21.3682 20.6926 21.7249 20.6926 22.1645C20.6926 22.604 20.3592 22.9607 19.9197 22.9607H19.8719C19.4323 22.9607 19.0756 22.604 19.0756 22.1645C19.0756 21.7249 19.4323 21.3682 19.8719 21.3682ZM22.962 13.5925H22.9461C21.9471 13.5925 20.9735 13.9949 20.2675 14.6967C19.6924 15.2692 19.3162 16.0219 19.1945 16.8193L26.7105 16.8196C26.4377 14.9954 24.8602 13.5925 22.962 13.5925Z" fill="#323232"/>
</svg>
