<svg width="26" height="26" viewBox="0 0 26 26" fill="none" xmlns="http://www.w3.org/2000/svg">
<g clip-path="url(#clip0_4_1076)">
<path d="M23.1111 3.61111H2.88889C2.12271 3.61111 1.38791 3.91548 0.846136 4.45725C0.304364 4.99902 0 5.73382 0 6.5L0 9.75H26V6.5C26 5.73382 25.6956 4.99902 25.1539 4.45725C24.6121 3.91548 23.8773 3.61111 23.1111 3.61111Z" fill="#141414"/>
<path d="M0 19.5C0 20.2662 0.304364 21.001 0.846136 21.5428C1.38791 22.0845 2.12271 22.3889 2.88889 22.3889H23.1111C23.8773 22.3889 24.6121 22.0845 25.1539 21.5428C25.6956 21.001 26 20.2662 26 19.5V16.25H0V19.5Z" fill="#007A3D"/>
<path d="M0 9.75H26V16.25H0V9.75Z" fill="#EEEEEE"/>
<path d="M0.975723 4.33621C0.668925 4.607 0.422579 4.94001 0.254468 5.3131C0.0863562 5.68618 -0.000389191 6.09078 1.31261e-06 6.49999V19.5C1.31261e-06 20.3616 0.377001 21.1351 0.975723 21.6645L12.6389 13L0.975723 4.33621Z" fill="#CE1126"/>
<path d="M4.78616 13.9663L5.54883 14.6712L5.47299 13.6348L6.49999 13.4781L5.64272 12.8917L6.16055 11.991L5.16749 12.2951L4.78616 11.3288L4.40483 12.2951L3.41177 11.991L3.92888 12.8917L3.07233 13.4781L4.0986 13.6348L4.02349 14.6712L4.78616 13.9663Z" fill="white"/>
</g>
<defs>
<clipPath id="clip0_4_1076">
<rect width="26" height="26" fill="white"/>
</clipPath>
</defs>
</svg>
