<svg width="46" height="45" viewBox="0 0 46 45" fill="none" xmlns="http://www.w3.org/2000/svg">
<circle cx="23.0811" cy="22.5" r="22.5" fill="white"/>
<mask id="path-2-inside-1_649_5186" fill="white">
<path fill-rule="evenodd" clip-rule="evenodd" d="M23.1275 13.1723C24.9619 12.0125 27.3987 11.6922 29.5038 12.3668C34.0829 13.8435 35.5044 18.8355 34.2329 22.8077C32.2711 29.0463 23.8924 33.6999 23.537 33.8951C23.4107 33.965 23.2708 34 23.1309 34C22.991 34 22.8523 33.9662 22.7259 33.8973C22.3728 33.7044 14.055 29.1197 12.0277 22.8088C12.0266 22.8088 12.0266 22.8077 12.0266 22.8077C10.7541 18.8344 12.171 13.8413 16.7456 12.3668C18.8936 11.6718 21.2345 11.9776 23.1275 13.1723ZM17.2646 13.9778C13.5631 15.1713 12.6336 19.1525 13.6387 22.2922C15.2204 27.2131 21.4692 31.1921 23.1298 32.1769C24.796 31.1819 31.0899 27.159 32.6208 22.2967C33.626 19.1537 32.693 15.1725 28.986 13.9778C27.19 13.4013 25.095 13.7521 23.6487 14.8713C23.3464 15.1036 22.9267 15.1082 22.6221 14.878C21.0901 13.7262 19.0888 13.3889 17.2646 13.9778ZM27.9029 16.2181C29.4406 16.7156 30.518 18.0773 30.65 19.6872C30.6872 20.1531 30.3409 20.5615 29.8749 20.5987C29.8512 20.601 29.8287 20.6021 29.805 20.6021C29.3684 20.6021 28.9984 20.267 28.9623 19.8248C28.8878 18.8975 28.2673 18.1145 27.384 17.8291C26.9384 17.6847 26.6947 17.2075 26.838 16.7642C26.9835 16.3197 27.4562 16.0782 27.9029 16.2181Z"/>
</mask>
<path fill-rule="evenodd" clip-rule="evenodd" d="M23.1275 13.1723C24.9619 12.0125 27.3987 11.6922 29.5038 12.3668C34.0829 13.8435 35.5044 18.8355 34.2329 22.8077C32.2711 29.0463 23.8924 33.6999 23.537 33.8951C23.4107 33.965 23.2708 34 23.1309 34C22.991 34 22.8523 33.9662 22.7259 33.8973C22.3728 33.7044 14.055 29.1197 12.0277 22.8088C12.0266 22.8088 12.0266 22.8077 12.0266 22.8077C10.7541 18.8344 12.171 13.8413 16.7456 12.3668C18.8936 11.6718 21.2345 11.9776 23.1275 13.1723ZM17.2646 13.9778C13.5631 15.1713 12.6336 19.1525 13.6387 22.2922C15.2204 27.2131 21.4692 31.1921 23.1298 32.1769C24.796 31.1819 31.0899 27.159 32.6208 22.2967C33.626 19.1537 32.693 15.1725 28.986 13.9778C27.19 13.4013 25.095 13.7521 23.6487 14.8713C23.3464 15.1036 22.9267 15.1082 22.6221 14.878C21.0901 13.7262 19.0888 13.3889 17.2646 13.9778ZM27.9029 16.2181C29.4406 16.7156 30.518 18.0773 30.65 19.6872C30.6872 20.1531 30.3409 20.5615 29.8749 20.5987C29.8512 20.601 29.8287 20.6021 29.805 20.6021C29.3684 20.6021 28.9984 20.267 28.9623 19.8248C28.8878 18.8975 28.2673 18.1145 27.384 17.8291C26.9384 17.6847 26.6947 17.2075 26.838 16.7642C26.9835 16.3197 27.4562 16.0782 27.9029 16.2181Z" fill="black"/>
<path d="M23.1275 13.1723L22.0601 14.8636L23.1285 15.5379L24.1963 14.8628L23.1275 13.1723ZM29.5038 12.3668L30.1176 10.4633L30.1141 10.4622L29.5038 12.3668ZM34.2329 22.8077L32.3281 22.198L32.325 22.2078L34.2329 22.8077ZM23.537 33.8951L22.5743 32.1421L22.5684 32.1453L23.537 33.8951ZM22.7259 33.8973L21.767 35.6525L21.7693 35.6537L22.7259 33.8973ZM12.0277 22.8088L13.9319 22.1972L13.4859 20.8088H12.0277V22.8088ZM12.0266 22.8077L14.0266 22.8077L14.0266 22.4952L13.9313 22.1977L12.0266 22.8077ZM16.7456 12.3668L17.3592 14.2703L17.3613 14.2697L16.7456 12.3668ZM17.2646 13.9778L17.8784 15.8812L17.879 15.881L17.2646 13.9778ZM13.6387 22.2922L11.734 22.902L11.7347 22.9041L13.6387 22.2922ZM23.1298 32.1769L22.1096 33.8971L23.1333 34.5043L24.1552 33.8941L23.1298 32.1769ZM32.6208 22.2967L30.7159 21.6874L30.7131 21.696L32.6208 22.2967ZM28.986 13.9778L29.5994 12.0742L29.5972 12.0735L28.986 13.9778ZM23.6487 14.8713L24.8676 16.4569L24.8727 16.453L23.6487 14.8713ZM22.6221 14.878L23.8278 13.2823L23.824 13.2794L22.6221 14.878ZM27.9029 16.2181L28.5186 14.3153L28.5096 14.3123L28.5006 14.3095L27.9029 16.2181ZM30.65 19.6872L32.6436 19.5279L32.6433 19.5237L30.65 19.6872ZM29.8749 20.5987L29.7156 18.6051L29.7005 18.6063L29.6853 18.6077L29.8749 20.5987ZM28.9623 19.8248L26.9687 19.9849L26.9689 19.9875L28.9623 19.8248ZM27.384 17.8291L26.7675 19.7317L26.7691 19.7322L27.384 17.8291ZM26.838 16.7642L24.9372 16.1418L24.9349 16.1492L26.838 16.7642ZM24.1963 14.8628C25.5308 14.019 27.3528 13.7776 28.8934 14.2714L30.1141 10.4622C27.4445 9.60666 24.3929 10.0061 22.0588 11.4818L24.1963 14.8628ZM28.8899 14.2702C32.0946 15.3037 33.3778 18.9186 32.3281 22.198L36.1377 23.4174C37.6309 18.7525 36.0712 12.3833 30.1176 10.4633L28.8899 14.2702ZM32.325 22.2078C31.5227 24.7591 29.3128 27.1744 27.0096 29.0751C24.7606 30.931 22.6975 32.0744 22.5743 32.1421L24.4998 35.6481C24.732 35.5206 27.0358 34.2396 29.5555 32.1603C32.0209 30.1257 34.9813 27.095 36.1408 23.4077L32.325 22.2078ZM22.5684 32.1453C22.7433 32.0485 22.9374 32 23.1309 32V36C23.6041 36 24.0781 35.8816 24.5057 35.6449L22.5684 32.1453ZM23.1309 32C23.3158 32 23.5072 32.0455 23.6825 32.1409L21.7693 35.6537C22.1973 35.8869 22.6662 36 23.1309 36V32ZM23.6848 32.1422C23.5622 32.0752 21.5165 30.95 19.2767 29.104C16.9865 27.2164 14.7666 24.7956 13.9319 22.1972L10.1236 23.4205C11.3161 27.1329 14.2688 30.1599 16.7326 32.1906C19.2468 34.2629 21.5365 35.5266 21.767 35.6525L23.6848 32.1422ZM12.0277 20.8088C12.3776 20.8088 12.7729 20.9021 13.1368 21.1448C13.4881 21.3791 13.6973 21.6771 13.8157 21.9141C13.9303 22.1434 13.9776 22.3484 13.9994 22.4792C14.0111 22.5493 14.0177 22.6122 14.0215 22.6653C14.0235 22.6922 14.0247 22.7175 14.0255 22.7411C14.0259 22.7529 14.0262 22.7644 14.0264 22.7754C14.0265 22.781 14.0265 22.7864 14.0266 22.7918C14.0266 22.7945 14.0266 22.7972 14.0266 22.7998C14.0266 22.8011 14.0266 22.8025 14.0266 22.8038C14.0266 22.8044 14.0266 22.8054 14.0266 22.8057C14.0266 22.8067 14.0266 22.8077 12.0266 22.8077C10.0266 22.8078 10.0266 22.8087 10.0266 22.8097C10.0266 22.81 10.0266 22.811 10.0266 22.8117C10.0266 22.813 10.0266 22.8143 10.0266 22.8156C10.0266 22.8183 10.0267 22.8209 10.0267 22.8236C10.0267 22.829 10.0268 22.8345 10.0269 22.84C10.0271 22.8511 10.0273 22.8625 10.0277 22.8744C10.0285 22.898 10.0298 22.9233 10.0317 22.9502C10.0355 23.0034 10.0421 23.0663 10.0538 23.1366C10.0757 23.2676 10.1231 23.4729 10.2378 23.7024C10.3564 23.9398 10.5658 24.2381 10.9174 24.4726C11.2816 24.7155 11.6773 24.8088 12.0277 24.8088V20.8088ZM13.9313 22.1977C12.8796 18.914 14.1621 15.3008 17.3592 14.2703L16.1321 10.4632C10.18 12.3817 8.62852 18.7548 10.1219 23.4177L13.9313 22.1977ZM17.3613 14.2697C18.94 13.7589 20.6648 13.983 22.0601 14.8636L24.1949 11.4809C21.8042 9.97214 18.8473 9.58477 16.13 10.4639L17.3613 14.2697ZM16.6508 12.0743C14.1615 12.877 12.5728 14.6549 11.8113 16.7104C11.0692 18.7134 11.111 20.9562 11.734 22.902L15.5435 21.6823C15.1613 20.4885 15.1653 19.1709 15.5621 18.1C15.9394 17.0816 16.6662 16.2721 17.8784 15.8812L16.6508 12.0743ZM11.7347 22.9041C12.6923 25.8835 14.9783 28.4019 17.0327 30.2114C19.1295 32.0582 21.2228 33.3712 22.1096 33.8971L24.15 30.4567C23.3761 29.9977 21.5148 28.8288 19.6766 27.2097C17.796 25.5533 16.1669 23.6218 15.5428 21.6802L11.7347 22.9041ZM24.1552 33.8941C25.0424 33.3643 27.1469 32.0385 29.248 30.1879C31.3029 28.3779 33.5962 25.8585 34.5285 22.8973L30.7131 21.696C30.1146 23.5972 28.4955 25.5203 26.6041 27.1862C24.759 28.8114 22.8835 29.9946 22.1044 30.4598L24.1552 33.8941ZM34.5258 22.9059C35.1487 20.9583 35.1895 18.7142 34.4454 16.7103C33.6817 14.654 32.0904 12.877 29.5994 12.0742L28.3725 15.8814C29.5886 16.2733 30.3173 17.0842 30.6956 18.1029C31.0934 19.174 31.0982 20.4921 30.7159 21.6874L34.5258 22.9059ZM29.5972 12.0735C27.1971 11.3031 24.4114 11.7522 22.4248 13.2895L24.8727 16.453C25.7786 15.752 27.1828 15.4995 28.3747 15.8821L29.5972 12.0735ZM22.4299 13.2856C22.8316 12.9768 23.4043 12.9623 23.8278 13.2823L21.4165 16.4738C22.4491 17.254 23.8612 17.2305 24.8676 16.4569L22.4299 13.2856ZM23.824 13.2794C21.7731 11.7375 19.0945 11.2854 16.6502 12.0745L17.879 15.881C19.0831 15.4923 20.4071 15.7149 21.4202 16.4766L23.824 13.2794ZM27.2873 18.121C28.0561 18.3698 28.5906 19.0449 28.6567 19.8506L32.6433 19.5237C32.4454 17.1097 30.8251 15.0615 28.5186 14.3153L27.2873 18.121ZM28.6563 19.8465C28.606 19.2167 29.0752 18.6562 29.7156 18.6051L30.0342 22.5924C31.6065 22.4667 32.7684 21.0895 32.6436 19.5279L28.6563 19.8465ZM29.6853 18.6077C29.7213 18.6043 29.762 18.6021 29.805 18.6021V22.6021C29.8953 22.6021 29.9812 22.5976 30.0646 22.5897L29.6853 18.6077ZM29.805 18.6021C30.401 18.6021 30.9063 19.0575 30.9556 19.6621L26.9689 19.9875C27.0905 21.4766 28.3358 22.6021 29.805 22.6021V18.6021ZM30.9559 19.6647C30.8166 17.9303 29.6513 16.4599 27.9989 15.926L26.7691 19.7322C26.8833 19.7692 26.959 19.8646 26.9687 19.9849L30.9559 19.6647ZM28.0005 15.9265C28.6021 16.1215 28.9382 16.7691 28.7411 17.3792L24.9349 16.1492C24.4512 17.6459 25.2746 19.248 26.7675 19.7317L28.0005 15.9265ZM28.7387 17.3865C28.5411 17.9899 27.8952 18.3115 27.3053 18.1268L28.5006 14.3095C27.0172 13.845 25.4259 14.6495 24.9373 16.1418L28.7387 17.3865Z" fill="#323232" mask="url(#path-2-inside-1_649_5186)"/>
</svg>
