<svg width="136" height="210" viewBox="0 0 136 210" fill="none" xmlns="http://www.w3.org/2000/svg">
<g clip-path="url(#clip0_631_2119)">
<path d="M85.25 178.5L74 203.5H53.5L43.5 178.5M85.25 178.5H43.5M85.25 178.5L90.875 166M43.5 178.5L38.5 166M90.875 166L96.5 153.5H33.5L38.5 166M90.875 166H38.5" stroke="#EAE6E6"/>
<path d="M79.0185 90.5277C77.5316 89.5548 74.1139 85.2119 72.3386 75.6231C77.1306 81.2278 77.7926 86.5995 79.0185 90.5277Z" stroke="#EAE6E6"/>
<path d="M72.2144 153.401L81.7592 76.569M81.7592 76.569C78.1325 70.5425 76.2479 58.909 82.3984 43.3713C88.5968 58.198 84.7752 67.7711 81.7592 76.569Z" stroke="#EAE6E6"/>
<path d="M83.0644 74.7184C86.0894 68.1873 94.7528 54.1002 105.206 50C96.2493 71.6512 90.8117 69.3325 83.0644 74.7184Z" stroke="#EAE6E6"/>
<path d="M79.3431 101.184C79.8399 98.1272 83.0644 91.4149 91.9874 89.0171C89.8486 93.9399 82.6667 99.1793 79.3431 101.184Z" stroke="#EAE6E6"/>
<path d="M65 153C65.3226 147.838 65.5067 140.946 65.3907 133M50.5 48C49.5 46.8333 47.7 43.1 48.5 37.5C53.3 39.9 51.8333 45.5 50.5 48ZM50.5 48C53.0737 53.7038 55.231 59.9539 57.032 66.5M65.3907 133C65.2009 120.005 64.2085 104.188 61.707 88.5M65.3907 133C56.5156 123.953 58.8178 108.67 40.5 99.3572M28.5 95C26.1667 93.1667 18.2 87.6 21 80C26.5 86 28.5 90.5 28.5 95ZM28.5 95C33.2821 96.2145 37.2213 97.6902 40.5 99.3572M57.032 66.5C56.188 63 55.7 54.4 60.5 48C60.1 56.8 58.0213 64 57.032 66.5ZM57.032 66.5C58.9832 73.592 60.5161 81.0314 61.707 88.5M61.707 88.5C56.9713 89.1667 52.9 85.7 48.5 74.5C58.9 77.7 59.4713 85.8333 61.707 88.5ZM40.5 99.3572C38.5 97.7381 38.3 91.3 39.5 84.5C44.7 87.7 41.1666 96.2381 40.5 99.3572Z" stroke="#EAE6E6"/>
<path d="M27.5 95.0945C21.1667 98.9278 8.4 99.8946 0 97.0946C15.5 89.5945 20 94.5945 27.5 95.0945Z" stroke="#EAE6E6"/>
<path d="M55.5 153.5C54 147.5 49.5 133.5 43.5 125.5M43.5 125.5C38.8333 126.667 29 126.9 27 118.5C34.6 119.7 41.1667 123.667 43.5 125.5Z" stroke="#EAE6E6"/>
<path d="M49.5 136C47.8333 132.833 45.4 124.8 49 118C52.6 125.6 50.8333 133.167 49.5 136Z" stroke="#EAE6E6"/>
<path d="M126.98 119.645L127.051 119.949L127.355 120.02L133.775 121.5L127.355 122.98L127.051 123.051L126.98 123.355L125.5 129.775L124.02 123.355L123.949 123.051L123.645 122.98L117.225 121.5L123.645 120.02L123.949 119.949L124.02 119.645L125.5 113.225L126.98 119.645Z" stroke="#EAE6E6"/>
<path d="M14.8245 36.8007L14.8947 37.1053L15.1993 37.1755L18.7748 38L15.1993 38.8245L14.8947 38.8947L14.8245 39.1993L14 42.7748L13.1755 39.1993L13.1053 38.8947L12.8007 38.8245L9.22523 38L12.8007 37.1755L13.1053 37.1053L13.1755 36.8007L14 33.2252L14.8245 36.8007Z" stroke="#EAE6E6"/>
</g>
<defs>
<clipPath id="clip0_631_2119">
<rect width="136" height="210" fill="white"/>
</clipPath>
</defs>
</svg>
