<svg width="46" height="45" viewBox="0 0 46 45" fill="none" xmlns="http://www.w3.org/2000/svg">
<circle cx="23.0811" cy="22.5" r="22.5" fill="white"/>
<path fill-rule="evenodd" clip-rule="evenodd" d="M27.3505 12C31.0833 12 33.5921 14.6146 33.5921 18.5052V27.4948C33.5921 31.3854 31.0833 34 27.3505 34H17.8116C14.0843 34 11.5811 31.3854 11.5811 27.4948V18.5052C11.5811 14.6146 14.0843 12 17.8116 12H27.3505ZM27.3505 13.6541H17.8116C15.0316 13.6541 13.2352 15.5586 13.2352 18.5052V27.4948C13.2352 30.4425 15.0316 32.3459 17.8116 32.3459H27.3505C30.1371 32.3459 31.9379 30.4425 31.9379 27.4948V18.5052C31.9379 15.5586 30.1371 13.6541 27.3505 13.6541ZM28.0551 23.1372C28.0621 23.1429 28.069 23.1485 28.0834 23.1619L28.1047 23.1823C28.109 23.1864 28.1137 23.1911 28.1189 23.1962L28.1805 23.2573C28.3794 23.4564 28.929 24.0178 30.5672 25.7C30.8859 26.0264 30.8804 26.5502 30.5529 26.8689C30.2265 27.1898 29.7016 27.1799 29.3829 26.8535C29.3829 26.8535 27.1233 24.5344 26.9623 24.3778C26.7914 24.2377 26.5168 24.1561 26.2466 24.1826C25.972 24.2102 25.725 24.3414 25.5497 24.5542C22.9869 27.6629 22.956 27.6927 22.9141 27.7335C21.9679 28.662 20.4406 28.6466 19.511 27.6982C19.511 27.6982 18.4854 26.6572 18.4678 26.6362C18.213 26.4002 17.7587 26.4157 17.4863 26.7035L15.7991 28.4822C15.6359 28.6543 15.4175 28.7403 15.1992 28.7403C14.9941 28.7403 14.7901 28.6653 14.6302 28.5131C14.2982 28.1999 14.285 27.675 14.5993 27.3453L16.2843 25.5666C17.1764 24.6193 18.6817 24.573 19.6334 25.4662L20.6898 26.5381C20.9843 26.8358 21.4629 26.8413 21.7584 26.5502C21.8698 26.419 24.2716 23.5022 24.2716 23.5022C24.7281 22.9486 25.3721 22.6068 26.0878 22.5362C26.8046 22.4733 27.5005 22.6817 28.0551 23.1372ZM18.8132 17.1046C20.3372 17.1057 21.5756 18.3452 21.5756 19.8659C21.5756 21.3888 20.3361 22.6283 18.8132 22.6283C17.2902 22.6283 16.0519 21.3888 16.0519 19.8659C16.0519 18.3429 17.2902 17.1046 18.8132 17.1046ZM18.8121 18.7587C18.2022 18.7587 17.706 19.2549 17.706 19.8659C17.706 20.4768 18.2022 20.9741 18.8132 20.9741C19.4241 20.9741 19.9214 20.4768 19.9214 19.8659C19.9214 19.256 19.4241 18.7598 18.8121 18.7587Z" fill="#323232"/>
</svg>
